<?xml version="1.0" encoding="iso-8859-1"?>
<!-- Generator: Adobe Illustrator 19.0.0, SVG Export Plug-In . SVG Version: 6.00 Build 0)  -->
<svg version="1.1" id="Layer_1" xmlns="http://www.w3.org/2000/svg" xmlns:xlink="http://www.w3.org/1999/xlink" x="0px" y="0px"
	 viewBox="0 0 512 512" width="42" height="42" style="enable-background:new 0 0 512 512;" xml:space="preserve">
<g>
	<path style="fill:#D81B60;" d="M256,512c-4.71,0-8.533-3.823-8.533-8.533V8.533C247.467,3.823,251.29,0,256,0
		c4.71,0,8.533,3.823,8.533,8.533v494.933C264.533,508.177,260.71,512,256,512z"/>
	<path style="fill:#D81B60;" d="M503.467,264.533H8.533C3.823,264.533,0,260.71,0,256c0-4.71,3.823-8.533,8.533-8.533h494.933
		c4.71,0,8.533,3.823,8.533,8.533C512,260.71,508.177,264.533,503.467,264.533z"/>
	<path style="fill:#D81B60;" d="M256,34.133C133.47,34.133,34.133,133.47,34.133,256S133.47,477.867,256,477.867
		S477.867,378.53,477.867,256S378.53,34.133,256,34.133z M256,443.733C152.32,443.733,68.267,359.68,68.267,256
		S152.32,68.267,256,68.267S443.733,152.32,443.733,256S359.68,443.733,256,443.733z"/>
</g>
<path d="M256,486.4C128.751,486.4,25.6,383.249,25.6,256S128.751,25.6,256,25.6S486.4,128.751,486.4,256S383.249,486.4,256,486.4z
	 M256,42.667C138.18,42.667,42.667,138.18,42.667,256S138.18,469.333,256,469.333S469.333,373.82,469.333,256
	S373.82,42.667,256,42.667z"/>
<path d="M256,452.267c-108.399,0-196.267-87.868-196.267-196.267S147.601,59.733,256,59.733S452.267,147.601,452.267,256
	S364.399,452.267,256,452.267z M256,76.8c-98.97,0-179.2,80.23-179.2,179.2S157.03,435.2,256,435.2S435.2,354.97,435.2,256
	S354.97,76.8,256,76.8z"/>
<path style="fill:#D81B60;" d="M256,332.8c-42.419,0-76.8-34.381-76.8-76.8s34.381-76.8,76.8-76.8s76.8,34.381,76.8,76.8
	S298.419,332.8,256,332.8z M256,196.267c-32.99,0-59.733,26.743-59.733,59.733S223.01,315.733,256,315.733
	S315.733,288.99,315.733,256S288.99,196.267,256,196.267z"/>
<g>
</g>
<g>
</g>
<g>
</g>
<g>
</g>
<g>
</g>
<g>
</g>
<g>
</g>
<g>
</g>
<g>
</g>
<g>
</g>
<g>
</g>
<g>
</g>
<g>
</g>
<g>
</g>
<g>
</g>
</svg>
